<svg xmlns="http://www.w3.org/2000/svg" version="1.0" width="510.000000pt" height="489.000000pt" viewBox="0 0 510.000000 489.000000" preserveAspectRatio="xMidYMid meet">
<metadata fill="#fffffe">
Created by potrace 1.16, written by Peter Selinger 2001-2019
</metadata>
<g transform="translate(0.000000,489.000000) scale(0.100000,-0.100000)" fill="#fffffe" stroke="none">
<path d="M2340 4774 c-19 -2 -73 -9 -120 -15 -521 -63 -1002 -306 -1381 -696 -204 -210 -353 -430 -463 -686 -146 -335 -207 -664 -192 -1037 10 -266 46 -460 131 -696 123 -342 307 -627 571 -885 202 -196 370 -314 619 -435 224 -109 416 -169 670 -211 172 -28 556 -25 728 5 522 94 944 316 1307 689 880 902 880 2352 0 3257 -365 376 -819 608 -1350 692 -91 15 -447 27 -520 18z m510 -89 c393 -58 763 -217 1079 -463 103 -79 282 -257 368 -365 686 -856 665 -2068 -49 -2902 -358 -418 -845 -687 -1398 -772 -158 -24 -491 -24 -650 0 -258 39 -451 101 -695 222 -226 113 -386 227 -565 405 -214 212 -333 374 -456 625 -387 787 -290 1704 255 2405 36 47 120 139 186 205 186 186 378 323 610 435 260 126 495 190 820 224 79 8 392 -4 495 -19z" fill="#fffffe"/>
<path d="M650 3251 l0 -51 43 0 c23 0 61 -9 83 -19 70 -32 69 -21 69 -658 0 -555 0 -562 -21 -590 -23 -31 -65 -49 -137 -58 l-48 -6 3 -47 3 -47 315 -3 c475 -4 628 13 790 90 84 40 181 136 217 214 36 78 43 183 17 266 -33 110 -135 198 -288 247 l-84 27 77 34 c89 40 165 110 201 185 67 142 0 324 -148 399 -118 60 -117 60 -624 64 l-468 3 0 -50z m746 -76 c61 -18 118 -64 146 -118 16 -31 23 -65 26 -132 3 -83 1 -94 -25 -145 -46 -90 -104 -118 -265 -127 l-98 -6 0 250 c0 225 2 251 18 265 33 30 121 36 198 13z m-26 -646 c117 -19 191 -64 231 -141 30 -58 43 -168 29 -246 -15 -88 -31 -122 -80 -176 -55 -60 -108 -79 -199 -74 -82 4 -113 23 -145 84 -19 36 -21 59 -24 302 l-3 262 63 0 c35 0 92 -5 128 -11z" fill="#fffffe"/>
<path d="M2119 3119 c-9 -5 -54 -102 -99 -216 -83 -209 -108 -253 -142 -253 -10 0 -18 -7 -18 -15 0 -12 17 -15 95 -15 78 0 95 3 95 15 0 9 -9 15 -24 15 -41 0 -50 22 -31 80 l17 50 77 0 77 0 18 -54 c19 -55 16 -76 -10 -76 -8 0 -14 -7 -14 -15 0 -12 19 -15 110 -15 91 0 110 3 110 15 0 8 -9 15 -20 15 -30 0 -50 39 -135 264 -42 111 -80 204 -83 208 -4 4 -14 3 -23 -3z" fill="#fffffe"/>
<path d="M4253 3121 c-74 -19 -116 -68 -116 -136 0 -63 29 -104 104 -147 114 -67 145 -123 94 -173 -47 -48 -127 -19 -165 60 -12 25 -28 45 -36 45 -17 0 -17 2 -3 -76 11 -61 12 -64 47 -74 94 -26 212 1 249 56 36 55 33 136 -7 179 -12 13 -49 38 -83 55 -88 46 -107 66 -107 110 0 47 25 70 74 70 42 0 81 -31 92 -74 3 -14 13 -26 21 -26 13 0 15 11 11 55 -3 31 -9 60 -14 65 -13 13 -124 20 -161 11z" fill="#fffffe"/>
<path d="M2405 3110 c-4 -6 -5 -12 -4 -13 2 -1 18 -9 34 -17 l30 -16 0 -199 0 -200 -32 -10 c-18 -5 -33 -15 -33 -22 0 -10 29 -13 121 -13 92 0 120 3 117 13 -3 6 -13 14 -24 15 -35 6 -44 32 -44 125 0 66 3 88 13 85 6 -3 50 -57 96 -121 l85 -117 78 0 c86 0 102 14 46 40 -30 14 -206 231 -207 255 -1 6 31 43 71 83 50 50 83 75 110 82 22 6 38 17 38 25 0 12 -18 15 -95 15 -76 0 -95 -3 -95 -14 0 -8 9 -18 20 -21 11 -3 20 -12 20 -20 0 -17 -151 -175 -168 -175 -10 0 -12 21 -10 88 l3 87 33 14 c18 8 31 20 29 25 -5 15 -223 20 -232 6z" fill="#fffffe"/>
<path d="M2947 3113 c-13 -12 -7 -21 18 -27 42 -11 46 -34 43 -232 -3 -198 -5 -204 -55 -204 -14 0 -23 -6 -23 -15 0 -13 29 -15 199 -15 l198 0 13 48 c7 26 14 54 16 63 8 31 -23 29 -36 -2 -22 -52 -64 -79 -125 -79 -76 0 -85 12 -85 116 l0 84 59 0 c56 0 59 -1 71 -30 7 -16 19 -30 26 -30 11 0 14 19 14 85 0 68 -3 85 -15 85 -8 0 -17 -11 -21 -25 -8 -33 -32 -45 -89 -45 l-46 0 3 93 3 92 58 3 c66 3 83 -6 104 -55 14 -36 43 -45 43 -14 0 10 -3 39 -6 65 l-7 46 -177 0 c-97 0 -180 -3 -183 -7z" fill="#fffffe"/>
<path d="M3400 3107 c0 -8 13 -20 29 -25 36 -13 41 -37 41 -211 0 -185 -5 -211 -41 -218 -16 -3 -29 -12 -29 -19 0 -11 24 -14 115 -14 96 0 115 3 115 15 0 8 -8 15 -18 15 -33 0 -42 21 -42 102 0 76 1 78 24 78 20 0 32 -14 64 -73 50 -90 84 -125 131 -132 20 -3 48 -8 63 -10 38 -6 42 18 6 45 -16 12 -54 60 -84 106 l-54 84 45 43 c39 38 45 49 45 86 0 23 -7 56 -16 72 -25 50 -69 62 -241 67 -132 4 -153 2 -153 -11z m255 -33 c41 -16 58 -109 30 -163 -14 -28 -58 -51 -96 -51 -17 0 -19 9 -19 103 0 57 3 107 7 110 8 9 56 9 78 1z" fill="#fffffe"/>
<path d="M3167 2472 c-39 -42 -3 -94 72 -106 28 -4 47 -15 64 -37 l25 -32 30 64 c17 35 29 66 26 70 -2 4 -21 5 -42 2 -31 -4 -44 0 -76 26 -44 35 -75 39 -99 13z" fill="#fffffe"/>
<path d="M3385 2388 c-56 -119 -69 -172 -46 -192 9 -8 74 -43 144 -78 l129 -64 -119 -49 c-65 -27 -148 -63 -185 -82 -63 -31 -68 -36 -68 -66 0 -37 15 -57 43 -57 17 0 286 130 355 172 17 11 32 26 32 34 0 8 4 14 9 14 4 0 68 -27 142 -61 219 -99 369 -160 380 -154 5 4 18 23 29 43 10 20 19 33 20 27 0 -5 17 -10 39 -10 26 -1 48 -9 70 -27 43 -37 67 -43 96 -24 51 34 21 97 -51 110 -50 9 -115 75 -107 109 2 12 -15 -27 -40 -86 -25 -60 -50 -114 -57 -120 -7 -7 -3 7 9 30 31 63 25 74 -10 19 -16 -27 -32 -46 -35 -43 -3 2 4 28 16 56 28 71 25 75 -10 14 -17 -29 -37 -53 -45 -53 -18 0 -18 -1 1 46 l15 39 -26 -32 c-15 -18 -33 -33 -41 -33 -17 0 -17 -2 1 50 21 59 19 62 -11 13 -31 -53 -45 -55 -34 -5 9 39 10 39 -28 -15 -11 -15 -12 -12 -8 27 l6 45 -18 -33 c-23 -42 -31 -33 -21 21 10 55 4 60 -12 8 -7 -24 -18 -41 -27 -41 -14 0 -13 15 3 95 3 11 -5 -1 -17 -27 -27 -60 -42 -62 -35 -5 l5 42 -18 -39 c-19 -42 -35 -34 -25 14 7 33 4 32 165 50 194 23 274 53 363 139 50 47 97 125 97 160 0 72 -58 106 -180 105 -124 -1 -189 -30 -324 -148 l-57 -49 -82 38 c-221 101 -367 165 -377 165 -6 0 -31 -42 -55 -92z m945 62 c0 -5 -15 -10 -32 -10 -48 0 -183 -59 -256 -110 -35 -25 -76 -52 -90 -60 -15 -8 -28 -19 -29 -23 -1 -4 -35 -35 -74 -70 -111 -95 -78 -53 62 79 131 124 190 164 280 188 63 17 139 20 139 6z m-715 -66 c83 -35 179 -76 213 -91 l64 -26 -93 -93 c-87 -87 -122 -112 -116 -81 2 6 -1 2 -7 -10 -5 -13 -14 -23 -19 -23 -5 0 -7 10 -4 23 3 12 8 38 11 57 6 37 -3 24 -24 -32 -16 -47 -33 -34 -27 20 l5 47 -16 -37 c-10 -21 -21 -38 -26 -38 -8 0 -3 53 9 97 3 10 -5 -3 -17 -29 -26 -54 -44 -57 -42 -7 l2 34 -15 -30 c-14 -29 -14 -29 -9 25 4 53 4 54 -9 25 -8 -16 -14 -38 -15 -48 0 -34 -25 -11 -31 29 -5 30 -7 32 -8 12 0 -16 -6 -28 -12 -28 -8 0 -10 14 -6 43 l6 42 -19 -40 -19 -40 -1 40 -1 40 -16 -30 c-31 -54 -26 -3 7 80 41 104 58 135 73 135 6 0 80 -30 162 -66z m802 22 c3 -3 -3 -9 -13 -12 -10 -4 -102 -45 -204 -91 -158 -72 -188 -83 -208 -74 -33 15 -42 13 -13 -3 24 -13 23 -15 -70 -60 l-94 -47 45 42 c143 132 326 241 430 257 51 7 114 2 127 -12z m-11 -64 c-48 -93 -235 -183 -456 -218 -52 -8 -104 -17 -115 -19 -34 -8 94 53 405 194 96 43 176 78 178 76 2 -2 -3 -16 -12 -33z m-5 -60 c-22 -41 -100 -107 -163 -137 -50 -24 -97 -37 -180 -49 -189 -27 -248 -33 -248 -24 0 9 13 12 168 38 173 29 306 81 387 154 46 41 49 42 36 18z" fill="#fffffe"/>
<path d="M2235 2301 c-104 -27 -181 -117 -192 -225 -15 -145 89 -270 235 -283 141 -13 254 69 282 203 33 160 -70 298 -231 309 -35 2 -77 1 -94 -4z m136 -52 c68 -48 97 -238 51 -341 -26 -60 -72 -91 -122 -83 -53 10 -80 32 -106 88 -62 136 -28 323 65 353 40 13 77 7 112 -17z" fill="#fffffe"/>
<path d="M2590 2286 c0 -8 12 -17 28 -21 15 -3 35 -14 45 -23 32 -28 129 -201 121 -214 -4 -7 -34 -50 -66 -95 -49 -69 -66 -84 -98 -94 -22 -7 -40 -18 -40 -26 0 -10 22 -13 95 -13 74 0 95 3 95 14 0 8 -12 17 -26 20 -19 5 -24 11 -19 24 10 28 80 142 86 142 8 0 89 -135 89 -149 0 -5 -9 -13 -20 -16 -11 -3 -20 -13 -20 -21 0 -12 20 -14 122 -12 78 2 123 7 125 14 2 6 -10 14 -26 17 -38 8 -58 30 -137 154 -71 112 -71 100 13 208 31 40 53 57 83 66 22 7 40 18 40 26 0 10 -22 13 -95 13 -73 0 -95 -3 -95 -13 0 -8 12 -19 26 -26 l26 -11 -28 -48 c-53 -91 -49 -89 -77 -46 -52 84 -58 114 -22 114 8 0 15 7 15 15 0 13 -20 15 -120 15 -96 0 -120 -3 -120 -14z" fill="#fffffe"/>
</g>
</svg>